<?xml version="1.0" encoding="utf-8"?>
<!-- Generator: Adobe Illustrator 22.1.0, SVG Export Plug-In . SVG Version: 6.00 Build 0)  -->
<svg version="1.1" id="Camada_1" xmlns="http://www.w3.org/2000/svg" xmlns:xlink="http://www.w3.org/1999/xlink" x="0px" y="0px"
	 width="22" height="20" viewBox="0 0 22.4 20.1" style="enable-background:new 0 0 22.4 20.1;" xml:space="preserve">
<g>
	<path d="M22.3,0v18.2c0,1-0.8,1.8-1.9,1.8H2.1c-1,0-1.9-0.8-1.9-1.8V1.8h1.8v15.6c0,0.7,0.9,0.7,0.9,0V0H22.3z M20.5,17.3V1.8H4.8
		v15.5H20.5z M18.6,14.5v0.9H6.7v-0.9H18.6z M12.2,9.1v3.6H6.7V9.1H12.2z M18.6,11.8v0.9H14v-0.9H18.6z M18.6,9.1V10H14V9.1H18.6z
		 M15.2,7c0.7,0,1.1-0.4,1.1-1c0-0.7-0.5-0.8-1-1c-0.5-0.2-0.6-0.3-0.6-0.4c0-0.1,0.1-0.2,0.3-0.2c0.3,0,0.4,0.1,0.5,0.4l0.6-0.4
		c-0.2-0.5-0.6-0.7-1.1-0.7c-0.5,0-1,0.4-1,1c0,0.6,0.4,0.8,0.9,1c0.5,0.1,0.6,0.2,0.6,0.4c0,0.1-0.1,0.3-0.4,0.3
		c-0.3,0-0.5-0.2-0.6-0.4L14,6.2C14.1,6.6,14.6,7,15.2,7z M17.7,7c0.7,0,1.1-0.4,1.1-1c0-0.7-0.5-0.8-1-1c-0.5-0.2-0.6-0.3-0.6-0.4
		c0-0.1,0.1-0.2,0.3-0.2c0.3,0,0.4,0.1,0.5,0.4l0.6-0.4c-0.2-0.5-0.6-0.7-1.1-0.7c-0.5,0-1,0.4-1,1c0,0.6,0.4,0.8,0.9,1
		c0.5,0.1,0.6,0.2,0.6,0.4c0,0.1-0.1,0.3-0.4,0.3c-0.3,0-0.5-0.2-0.6-0.4l-0.6,0.4C16.6,6.6,17,7,17.7,7z M7.2,6.9H6.6V3.7h1.2
		c0.6,0,1.1,0.5,1.1,1.1c0,0.6-0.5,1.1-1.1,1.1H7.2V6.9z M13.7,4.4h-1.2v0.5h1.1v0.7h-1.1v0.6h1.2v0.7h-1.9V3.7h1.9V4.4z M9.8,6.9
		H9.1V3.7h1.2c0.6,0,1,0.5,1,1.1c0,0.4-0.2,0.7-0.6,0.9l0.7,1.2h-0.8l-0.6-1H9.8V6.9z M7.7,4.4H7.2v0.8h0.5c0.2,0,0.4-0.2,0.4-0.4
		C8.1,4.6,7.9,4.4,7.7,4.4z M10.4,4.4H9.8v0.8h0.5c0.2,0,0.3-0.2,0.3-0.4C10.7,4.6,10.5,4.4,10.4,4.4z"/>
</g>
</svg>
