<?xml version="1.0" encoding="utf-8"?>
<!-- Generator: Adobe Illustrator 22.1.0, SVG Export Plug-In . SVG Version: 6.00 Build 0)  -->
<svg version="1.1" id="Camada_1" xmlns="http://www.w3.org/2000/svg" xmlns:xlink="http://www.w3.org/1999/xlink" x="0px" y="0px"
	 width="21" height="24" viewBox="0 0 21 24" style="enable-background:new 0 0 21 24;" xml:space="preserve">
<style type="text/css">
	.st0{stroke:#000000;}
</style>
<path class="st0" d="M10.5,5.7l3.8,3.8H14V10v3.5h-2V12v-0.5h-0.5h-2H8.9V12v1.5h-2V10V9.5H6.6L10.5,5.7z M0.9,9.8
	c0-5.1,4.3-9.3,9.6-9.3S20,4.7,20,9.8c0,2.6-1,4.8-2.8,7c-1.7,2.1-4.1,4.2-6.8,6.5c-2.7-2.3-5.1-4.4-6.8-6.5
	C1.9,14.6,0.9,12.4,0.9,9.8z M1.9,10c0,4.7,3.8,8.5,8.5,8.5s8.5-3.8,8.5-8.5s-3.8-8.5-8.5-8.5S1.9,5.3,1.9,10z"/>
</svg>
